<svg data-logo="logo" xmlns="http://www.w3.org/2000/svg" viewBox="0 0 221 43">
        <g style="opacity: 1;" id="logogram" transform="translate(0, 1) rotate(0)"><path d="M20.7544 0.269989C18.128 0.269989 15.5272 0.78736 13.1007 1.79239C10.6742 2.79753 8.46948 4.27067 6.61222 6.12782C4.75508 7.98507 3.28194 10.1898 2.27679 12.6163C1.27177 15.0428 0.754395 17.6436 0.754395 20.27C0.754395 22.8964 1.27177 25.4972 2.27679 27.9237C3.28194 30.3502 4.75508 32.5549 6.61222 34.4122C8.46948 36.2693 10.6742 37.7424 13.1007 38.7476C15.5272 39.7526 18.128 40.27 20.7544 40.27V30.27C19.4411 30.27 18.1408 30.0114 16.9275 29.5087C15.7143 29.0062 14.6119 28.2696 13.6833 27.3411C12.7547 26.4125 12.0182 25.3101 11.5157 24.0968C11.013 22.8836 10.7544 21.5832 10.7544 20.27C10.7544 18.9567 11.013 17.6564 11.5157 16.4431C12.0182 15.2299 12.7547 14.1275 13.6833 13.1989C14.6119 12.2703 15.7143 11.5338 16.9275 11.0312C18.1408 10.5286 19.4411 10.27 20.7544 10.27V0.269989Z" fill="#65318E"></path><path d="M20.7545 26.9366C24.4364 26.9366 27.4211 23.9519 27.4211 20.27C27.4211 16.588 24.4364 13.6033 20.7545 13.6033C17.0725 13.6033 14.0878 16.588 14.0878 20.27C14.0878 23.9519 17.0725 26.9366 20.7545 26.9366Z" fill="#65318E"></path><path d="M0.754395 20.27C0.754395 22.8964 1.27177 25.4972 2.27679 27.9237C3.28194 30.3502 4.75508 32.5549 6.61222 34.4122C8.46948 36.2693 10.6742 37.7424 13.1007 38.7476C15.5272 39.7526 18.128 40.27 20.7544 40.27C23.3808 40.27 25.9816 39.7526 28.4081 38.7476C30.8346 37.7424 33.0393 36.2693 34.8966 34.4122C36.7537 32.5549 38.2269 30.3502 39.232 27.9237C40.237 25.4972 40.7544 22.8964 40.7544 20.27H30.7544C30.7544 21.5832 30.4958 22.8836 29.9931 24.0968C29.4906 25.3101 28.7541 26.4125 27.8255 27.3411C26.8969 28.2696 25.7945 29.0062 24.5813 29.5087C23.368 30.0114 22.0677 30.27 20.7544 30.27C19.4411 30.27 18.1408 30.0114 16.9275 29.5087C15.7143 29.0062 14.6119 28.2696 13.6833 27.3411C12.7547 26.4125 12.0182 25.3101 11.5157 24.0968C11.013 22.8836 10.7544 21.5832 10.7544 20.27H0.754395Z" fill="#B78ED8"></path><path d="M27.4212 20.27C27.4212 18.5019 26.7188 16.8062 25.4686 15.556C24.2183 14.3057 22.5227 13.6033 20.7546 13.6033C18.9864 13.6033 17.2908 14.3057 16.0405 15.556C14.7902 16.8062 14.0878 18.5019 14.0878 20.27H20.7546H27.4212Z" fill="#B78ED8"></path></g>
        <g style="opacity: 1;" id="logotype" transform="translate(47, 7.5)"><path fill="#111111" d="M7.91 25.84L7.91 25.84Q7.64 25.56 7.52 25.19Q7.40 24.81 6.96 24.57L6.96 24.57Q6.89 24.06 6.77 23.39Q6.65 22.73 6.53 22.03Q6.41 21.33 6.36 20.63Q6.31 19.92 6.41 19.34L6.41 19.34Q6.48 19.04 6.63 18.76Q6.79 18.49 6.94 18.23Q7.09 17.98 7.18 17.70Q7.26 17.43 7.20 17.16L7.20 17.16Q7.40 17.12 7.45 16.93Q7.50 16.75 7.78 16.81L7.78 16.81Q8.02 16.06 8.29 15.41Q8.56 14.76 8.87 14.15Q9.18 13.53 9.50 12.90Q9.83 12.27 10.10 11.48L10.10 11.48Q9.52 10.94 9.26 10.30Q9.01 9.67 8.87 9.02Q8.73 8.37 8.67 7.71Q8.60 7.04 8.39 6.36L8.39 6.36Q8.80 5.74 9.38 5.35Q9.96 4.95 10.67 4.70Q11.37 4.44 12.19 4.29Q13.01 4.13 13.93 3.93L13.93 3.93Q15.57 3.42 16.87 3.13Q18.17 2.83 19.40 2.65Q20.63 2.46 21.96 2.31Q23.29 2.15 25.04 1.84L25.04 1.84Q25.07 1.95 25.16 1.95Q25.24 1.95 25.38 1.95L25.38 1.95Q25.48 2.19 25.76 2.19L25.76 2.19Q25.76 2.08 25.74 2.00Q25.72 1.91 25.72 1.84L25.72 1.84Q25.79 1.84 25.91 1.88Q26.03 1.91 26.11 1.95Q26.20 1.98 26.27 1.93Q26.34 1.88 26.30 1.71L26.30 1.71Q26.71 2.42 27.36 2.89Q28.01 3.35 28.80 3.69L28.80 3.69Q28.83 4.00 28.81 4.13Q28.80 4.27 28.76 4.39Q28.73 4.51 28.73 4.66Q28.73 4.82 28.80 5.09L28.80 5.09Q28.25 6.01 27.55 6.53Q26.85 7.04 26.06 7.31Q25.28 7.59 24.41 7.72Q23.53 7.86 22.63 8.01Q21.72 8.17 20.80 8.44Q19.88 8.71 18.99 9.26L18.99 9.26Q18.71 9.16 18.49 9.18Q18.27 9.19 18.03 9.26Q17.79 9.33 17.50 9.40Q17.21 9.47 16.80 9.40L16.80 9.40Q16.53 9.64 16.17 9.74Q15.81 9.84 15.43 9.94L15.43 9.94Q15.60 10.32 15.59 10.70Q15.57 11.07 15.67 11.35L15.67 11.35Q17.11 11.48 18.85 11.33Q20.59 11.17 22.27 11.11L22.27 11.11Q22.30 11.28 22.24 11.35Q22.17 11.41 22.17 11.58L22.17 11.58Q22.47 11.79 22.75 12.10Q23.02 12.41 23.31 12.70Q23.60 12.99 23.91 13.17Q24.22 13.36 24.63 13.33L24.63 13.33Q24.80 13.67 24.87 14.05Q24.94 14.42 24.76 14.83L24.76 14.83Q24.08 15.28 23.43 15.74Q22.78 16.20 22.08 16.58Q21.38 16.95 20.56 17.19Q19.74 17.43 18.78 17.40L18.78 17.40Q18.61 17.40 18.49 17.40Q18.37 17.40 18.20 17.26L18.20 17.26Q17.86 17.43 17.30 17.38Q16.73 17.33 16.36 17.50L16.36 17.50Q15.88 17.33 15.25 17.33Q14.61 17.33 14.13 17.16L14.13 17.16Q13.52 18.04 12.97 19.02Q12.43 19.99 12.02 21.09L12.02 21.09Q13.42 21.29 14.34 21.26Q15.26 21.22 16.08 21.12Q16.90 21.02 17.77 20.92Q18.65 20.81 19.91 20.85L19.91 20.85Q20.77 20.44 21.88 20.28Q22.99 20.13 23.94 19.82L23.94 19.82Q24.29 19.92 24.53 20.22Q24.76 20.51 24.99 20.80Q25.21 21.09 25.45 21.29Q25.69 21.50 26.06 21.43L26.06 21.43Q26.23 21.60 26.29 21.84Q26.34 22.08 26.39 22.28Q26.44 22.49 26.54 22.61Q26.64 22.73 26.92 22.69L26.92 22.69Q26.27 24.03 25.47 24.74Q24.66 25.46 23.65 25.85Q22.65 26.25 21.40 26.44Q20.15 26.62 18.61 26.90L18.61 26.90Q18.24 26.97 17.98 26.88Q17.72 26.79 17.45 26.79L17.45 26.79Q16.49 26.97 15.18 27.14Q13.86 27.31 12.53 27.27Q11.20 27.24 9.96 26.93Q8.73 26.62 7.91 25.84ZM41.75 27.51L39.80 26.11Q39.29 24.40 38.32 22.83Q37.34 21.26 36.45 20.13L36.45 20.13Q35.05 21.19 33.81 22.47Q32.56 23.75 31.53 25.22L31.53 25.22Q31.46 25.94 31.36 26.40Q31.26 26.86 31.00 27.17Q30.75 27.48 30.35 27.70Q29.96 27.92 29.34 28.16L29.34 28.16Q28.22 27.34 27.70 26.13Q27.19 24.92 27.57 23.72L27.57 23.72Q27.60 22.86 27.99 22.04Q28.39 21.22 28.95 20.49Q29.52 19.75 30.17 19.09Q30.81 18.42 31.40 17.84L31.40 17.84Q31.50 17.50 31.79 17.24Q32.08 16.99 32.40 16.75Q32.73 16.51 33.05 16.23Q33.38 15.96 33.58 15.58L33.58 15.58Q33.34 14.80 32.66 13.99Q31.98 13.19 31.40 12.34L31.40 12.34Q31.33 12.17 31.14 12.23Q30.95 12.30 30.88 12.20L30.88 12.20Q30.95 11.76 30.69 11.24Q30.44 10.73 30.06 10.35L30.06 10.35Q30.17 9.98 30.30 9.45Q30.44 8.92 30.23 8.27L30.23 8.27Q30.23 8.00 30.34 7.74Q30.44 7.48 30.54 7.26Q30.64 7.04 30.71 6.82Q30.78 6.59 30.68 6.39L30.68 6.39Q31.12 6.32 31.46 6.42Q31.81 6.53 32.11 6.66Q32.42 6.80 32.68 6.87Q32.93 6.94 33.21 6.83L33.21 6.83Q33.17 7.00 33.21 7.07Q33.24 7.14 33.31 7.18Q33.38 7.21 33.45 7.26Q33.51 7.31 33.51 7.42L33.51 7.42Q34.06 7.59 34.71 8.15Q35.36 8.71 35.96 9.40Q36.56 10.08 37.04 10.76Q37.51 11.45 37.75 11.79L37.75 11.79Q38.57 11.28 39.53 10.58Q40.49 9.88 41.51 9.12Q42.54 8.37 43.58 7.71Q44.62 7.04 45.61 6.63L45.61 6.63Q46.20 6.90 46.52 7.30Q46.84 7.69 47.07 8.12Q47.29 8.54 47.46 9.00Q47.63 9.47 47.94 9.81L47.94 9.81Q47.67 10.39 47.34 10.78Q47.02 11.17 46.88 11.69L46.88 11.69Q46.16 12.00 45.17 12.61L45.17 12.61Q44.28 13.16 43.00 14.08Q41.72 15.00 39.91 16.54L39.91 16.54Q40.32 17.02 40.59 17.46Q40.86 17.91 41.03 18.22L41.03 18.22Q41.21 18.59 41.34 18.90L41.34 18.90Q41.65 19.14 41.85 19.45Q42.06 19.75 42.25 20.08Q42.44 20.40 42.67 20.69Q42.91 20.98 43.29 21.16L43.29 21.16Q43.50 22.18 43.87 22.98Q44.25 23.79 44.21 24.64L44.21 24.64Q43.97 25.43 43.51 25.94Q43.05 26.45 42.85 27L42.85 27Q42.54 27.10 42.23 27.21Q41.92 27.31 41.75 27.51L41.75 27.51ZM58.57 5.81L58.57 5.81Q60.00 5.98 61.13 6.39Q62.26 6.80 63.05 7.48L63.05 7.48Q63.59 8.34 64.09 9.33Q64.58 10.32 64.84 11.40Q65.10 12.47 65.08 13.60Q65.06 14.73 64.58 15.89L64.58 15.89Q63.59 17.12 62.17 17.89Q60.76 18.66 59.12 19.14Q57.47 19.62 55.71 19.96Q53.95 20.30 52.28 20.64L52.28 20.64Q52.31 21.43 52.30 22.30Q52.28 23.17 52.13 24.04Q51.97 24.92 51.66 25.74Q51.36 26.56 50.84 27.24L50.84 27.24Q50.26 27.24 49.65 27.39Q49.03 27.55 48.55 27.65L48.55 27.65Q48.31 27.51 48.13 27.39Q47.94 27.27 47.60 27.24L47.60 27.24Q47.67 26.90 47.43 26.54Q47.19 26.18 46.95 25.80Q46.71 25.43 46.62 25.09Q46.54 24.74 46.95 24.44L46.95 24.44Q46.71 24.20 46.71 23.82L46.71 23.82Q46.95 23.41 47.14 22.69Q47.32 21.98 47.44 21.27Q47.56 20.57 47.49 19.99Q47.43 19.41 46.81 19.14L46.81 19.14Q46.84 19.07 46.95 19.07Q47.05 19.07 47.15 19.04L47.15 19.04Q46.88 18.83 46.83 18.46Q46.78 18.08 46.57 17.81L46.57 17.81Q46.64 17.63 46.67 17.50Q46.71 17.36 46.91 17.40L46.91 17.40Q46.81 16.78 46.93 16.23Q47.05 15.69 47.29 15.19Q47.53 14.70 47.87 14.22Q48.21 13.74 48.52 13.26L48.52 13.26Q48.76 13.23 48.81 13.33Q48.86 13.43 49.03 13.29L49.03 13.29Q49.48 12.95 49.65 12.58Q49.82 12.20 49.82 11.72L49.82 11.72Q50.06 11.00 50.40 10.27Q50.74 9.53 51.15 8.92Q51.56 8.30 52.06 7.83Q52.55 7.35 53.10 7.11L53.10 7.11Q53.51 6.77 54.13 6.48Q54.74 6.18 55.46 6.03Q56.18 5.88 56.91 5.86Q57.65 5.84 58.26 6.01L58.26 6.01Q58.43 6.08 58.45 5.95Q58.47 5.81 58.57 5.81ZM57.17 13.98L57.17 13.98Q58.02 13.60 59.00 13.38Q59.97 13.16 60.62 12.54L60.62 12.54Q60.21 12.17 59.42 11.88Q58.64 11.58 57.71 11.52Q56.79 11.45 55.85 11.67Q54.91 11.89 54.23 12.51L54.23 12.51Q54.02 13.12 53.89 13.48Q53.75 13.84 53.51 14.35L53.51 14.35Q53.58 14.52 53.73 14.61Q53.89 14.70 53.95 14.87L53.95 14.87Q54.74 14.46 55.54 14.40Q56.35 14.35 57.17 13.98ZM83.11 7.76L83.11 7.76Q83.14 8.00 83.13 8.12Q83.11 8.24 83.09 8.34Q83.08 8.44 83.08 8.56Q83.08 8.68 83.14 8.92L83.14 8.92Q82.43 10.08 81.49 10.51Q80.55 10.94 79.45 11.12Q78.36 11.31 77.21 11.52Q76.07 11.72 74.94 12.41L74.94 12.41Q74.50 12.23 74.14 12.41Q73.78 12.58 73.09 12.51L73.09 12.51Q72.89 12.71 72.58 12.80Q72.27 12.88 71.97 12.99L71.97 12.99Q72.10 13.29 72.09 13.62Q72.07 13.94 72.17 14.15L72.17 14.15Q73.37 14.25 74.82 14.11Q76.27 13.98 77.67 13.94L77.67 13.94Q77.71 14.11 77.64 14.17Q77.57 14.22 77.61 14.35L77.61 14.35Q77.85 14.52 78.08 14.78Q78.32 15.04 78.56 15.28Q78.80 15.52 79.06 15.67Q79.32 15.82 79.66 15.79L79.66 15.79Q79.79 16.06 79.85 16.39Q79.90 16.71 79.76 17.05L79.76 17.05Q79.21 17.43 78.67 17.82Q78.12 18.22 77.52 18.52Q76.92 18.83 76.26 19.02Q75.59 19.21 74.77 19.17L74.77 19.17Q74.60 19.17 74.51 19.17Q74.43 19.17 74.29 19.07L74.29 19.07Q74.02 19.24 73.52 19.17Q73.03 19.10 72.75 19.28L72.75 19.28Q72.38 19.10 71.85 19.12Q71.32 19.14 70.91 19.00L70.91 19.00Q70.36 19.72 69.92 20.54Q69.47 21.36 69.13 22.28L69.13 22.28Q70.29 22.45 71.06 22.42Q71.83 22.39 72.51 22.30Q73.20 22.21 73.92 22.13Q74.63 22.04 75.73 22.08L75.73 22.08Q76.41 21.70 77.35 21.58Q78.29 21.46 79.08 21.19L79.08 21.19Q79.35 21.29 79.55 21.55Q79.76 21.80 79.95 22.03Q80.14 22.25 80.34 22.42Q80.55 22.59 80.85 22.56L80.85 22.56Q80.99 22.69 81.04 22.88Q81.09 23.07 81.13 23.24Q81.16 23.41 81.25 23.53Q81.33 23.65 81.54 23.62L81.54 23.62Q81.02 24.74 80.36 25.34Q79.69 25.94 78.84 26.25Q77.98 26.56 76.94 26.73Q75.90 26.90 74.63 27.14L74.63 27.14Q74.33 27.21 74.12 27.12Q73.92 27.03 73.64 27.03L73.64 27.03Q72.86 27.21 71.76 27.34Q70.67 27.48 69.54 27.44Q68.41 27.41 67.39 27.15Q66.36 26.90 65.71 26.25L65.71 26.25Q65.44 26.01 65.35 25.68Q65.27 25.36 64.89 25.19L64.89 25.19Q64.86 24.74 64.75 24.20Q64.65 23.65 64.55 23.05Q64.45 22.45 64.40 21.87Q64.34 21.29 64.45 20.81L64.45 20.81Q64.55 20.30 64.87 19.89Q65.20 19.48 65.10 19.00L65.10 19.00Q65.27 18.97 65.30 18.81Q65.34 18.66 65.58 18.69L65.58 18.69Q65.78 18.08 66.02 17.53Q66.26 16.99 66.52 16.47Q66.77 15.96 67.03 15.43Q67.28 14.90 67.52 14.25L67.52 14.25Q67.04 13.81 66.82 13.28Q66.60 12.75 66.50 12.22Q66.40 11.69 66.33 11.12Q66.26 10.56 66.09 9.98L66.09 9.98Q66.43 9.47 66.93 9.14Q67.42 8.82 68.00 8.61Q68.58 8.41 69.27 8.27Q69.95 8.13 70.70 7.96L70.70 7.96Q72.07 7.52 73.15 7.28Q74.22 7.04 75.27 6.89Q76.31 6.73 77.44 6.59Q78.56 6.46 80.00 6.18L80.00 6.18Q80.31 6.49 80.58 6.49L80.58 6.49Q80.72 6.18 80.90 6.30Q81.09 6.42 81.06 6.12L81.06 6.12Q81.40 6.70 81.93 7.09Q82.46 7.48 83.11 7.76ZM89.30 20.78L89.30 20.78Q88.99 20.85 88.85 21.14Q88.71 21.43 88.60 21.74Q88.48 22.04 88.36 22.30Q88.24 22.56 88.00 22.56L88.00 22.56Q87.96 22.83 87.81 23.04Q87.66 23.24 87.52 23.46Q87.38 23.68 87.31 23.94Q87.25 24.20 87.38 24.54L87.38 24.54Q87.11 24.74 87.04 25.12Q86.97 25.50 86.89 25.84Q86.80 26.18 86.60 26.42Q86.39 26.66 85.84 26.62L85.84 26.62Q85.74 26.76 85.81 26.79Q85.88 26.83 85.91 27.03L85.91 27.03Q85.54 26.97 85.35 27.09Q85.16 27.21 84.89 27.24L84.89 27.24Q84.24 27.03 83.81 26.52Q83.38 26.01 83.06 25.38Q82.73 24.74 82.48 24.09Q82.22 23.45 81.98 22.97L81.98 22.97Q82.08 22.59 82.02 22.23Q81.95 21.87 81.78 21.63L81.78 21.63Q83.45 18.08 85.43 14.05Q87.42 10.01 89.19 6.08L89.19 6.08Q89.98 6.39 90.75 6.78Q91.52 7.18 92.15 7.69Q92.78 8.20 93.23 8.87Q93.67 9.53 93.81 10.35L93.81 10.35Q93.74 10.56 93.65 10.51Q93.57 10.46 93.50 10.56L93.50 10.56Q93.64 10.73 93.65 10.80Q93.67 10.87 93.65 10.94Q93.64 11.00 93.64 11.12Q93.64 11.24 93.74 11.45L93.74 11.45Q93.60 11.41 93.55 11.48Q93.50 11.55 93.33 11.48L93.33 11.48Q93.47 11.86 93.41 12.10Q93.36 12.34 93.26 12.52Q93.16 12.71 93.09 12.94Q93.02 13.16 93.12 13.50L93.12 13.50Q93.02 13.50 92.97 13.55Q92.92 13.60 92.88 13.65Q92.85 13.70 92.80 13.76Q92.75 13.81 92.65 13.77L92.65 13.77Q92.75 14.52 92.71 15.28Q92.68 16.03 92.66 16.80Q92.65 17.57 92.68 18.40Q92.71 19.24 92.92 20.13L92.92 20.13Q94.15 19.41 94.88 18.28Q95.62 17.16 96.08 15.75Q96.54 14.35 96.78 12.75Q97.02 11.14 97.29 9.47L97.29 9.47Q97.60 9.16 97.77 8.71Q97.94 8.27 98.08 7.77Q98.22 7.28 98.35 6.78Q98.49 6.29 98.70 5.88L98.70 5.88Q99.21 5.95 99.57 6.20Q99.93 6.46 100.23 6.75Q100.54 7.04 100.88 7.30Q101.22 7.55 101.74 7.62L101.74 7.62Q102.15 8.20 102.49 8.75Q102.83 9.29 102.93 9.91L102.93 9.91Q102.76 10.18 102.68 10.53Q102.59 10.87 102.49 11.21Q102.39 11.55 102.22 11.84Q102.04 12.13 101.74 12.34L101.74 12.34Q101.63 13.23 101.48 13.96Q101.33 14.70 101.17 15.41Q101.02 16.13 100.92 16.90Q100.81 17.67 100.85 18.59L100.85 18.59Q100.58 19.38 100.27 20.27Q99.96 21.16 99.79 21.87L99.79 21.87Q99.24 22.32 98.93 22.93Q98.63 23.55 98.29 24.16L98.29 24.16Q98.15 24.30 98.11 24.23Q98.08 24.16 97.88 24.13L97.88 24.13Q97.91 24.27 97.88 24.33Q97.84 24.40 97.79 24.45Q97.74 24.50 97.72 24.61Q97.70 24.71 97.77 24.88L97.77 24.88Q97.29 25.09 96.92 25.46Q96.54 25.84 96.11 26.15Q95.69 26.45 95.09 26.56Q94.49 26.66 93.53 26.32L93.53 26.32Q92.13 25.29 91.06 23.96Q89.98 22.63 89.30 20.78ZM102.49 11.58L102.49 11.58Q102.59 11.07 102.63 10.75Q102.66 10.42 102.39 10.05L102.39 10.05Q102.52 9.50 102.61 9.19Q102.69 8.88 102.63 8.34L102.63 8.34Q102.93 7.45 103.57 6.83Q104.20 6.22 104.95 5.79Q105.70 5.36 106.52 5.07Q107.34 4.78 108.06 4.58L108.06 4.58Q108.06 4.44 107.92 4.44Q107.79 4.44 107.86 4.27L107.86 4.27Q109.70 3.93 111.56 3.28Q113.43 2.63 115.38 2.12Q117.32 1.60 119.37 1.48Q121.42 1.37 123.68 2.01L123.68 2.01Q123.82 2.42 124.06 2.80Q124.30 3.18 124.55 3.54Q124.81 3.89 125.01 4.24Q125.22 4.58 125.25 4.95L125.25 4.95Q125.66 5.33 125.92 5.76Q126.18 6.18 126.00 6.90L126.00 6.90Q125.63 7.18 125.22 7.45Q124.81 7.72 124.36 7.96L124.36 7.96Q122.83 7.59 121.29 7.69Q119.75 7.79 118.52 7.93L118.52 7.93Q118.14 7.52 117.63 7.53Q117.12 7.55 116.55 7.71Q115.99 7.86 115.44 8.01Q114.90 8.17 114.42 8.10L114.42 8.10Q114.04 8.44 113.43 8.56Q112.81 8.68 112.13 8.75L112.13 8.75Q112.09 8.92 112.20 8.99Q112.30 9.06 112.23 9.26L112.23 9.26Q112.47 9.57 112.88 9.69Q113.29 9.81 113.72 9.91Q114.14 10.01 114.49 10.20Q114.83 10.39 114.93 10.80L114.93 10.80Q115.55 10.83 115.99 11.12Q116.43 11.41 116.74 11.82Q117.05 12.23 117.19 12.70Q117.32 13.16 117.29 13.53L117.29 13.53Q117.43 13.88 117.58 13.81Q117.73 13.74 117.94 13.98L117.94 13.98Q118.08 14.49 118.57 15.05Q119.07 15.62 119.34 16.27L119.34 16.27Q119.41 17.29 119.46 18.11Q119.51 18.93 119.17 19.72L119.17 19.72Q118.59 21.22 117.49 22.42Q116.40 23.62 115.02 24.52Q113.63 25.43 112.09 26.09Q110.56 26.76 109.05 27.21L109.05 27.21Q108.92 27.17 108.73 27.21Q108.54 27.24 108.64 27L108.64 27Q108.33 27.27 107.94 27.34Q107.55 27.41 107.09 27.39Q106.63 27.38 106.16 27.34Q105.70 27.31 105.26 27.38L105.26 27.38Q104.98 27.10 104.76 26.83Q104.54 26.56 104.40 26.18L104.40 26.18Q104.23 26.15 104.25 25.96Q104.27 25.77 104.10 25.77L104.10 25.77Q104.10 25.63 104.13 25.56Q104.16 25.50 104.20 25.43L104.20 25.43Q104.33 25.33 104.32 25.27Q104.30 25.22 104.22 25.17Q104.13 25.12 104.04 25.05Q103.96 24.98 103.99 24.88L103.99 24.88Q104.16 24.57 104.11 24.15Q104.06 23.72 104.03 23.27Q103.99 22.83 104.10 22.44Q104.20 22.04 104.68 21.77L104.68 21.77Q106.08 21.91 107.33 21.63Q108.57 21.36 109.68 20.88Q110.79 20.40 111.80 19.84Q112.81 19.28 113.77 18.80L113.77 18.80Q113.87 18.46 114.09 18.22Q114.32 17.98 114.55 17.75Q114.79 17.53 115.00 17.28Q115.20 17.02 115.31 16.64L115.31 16.64Q115.34 16.51 115.31 16.44Q115.27 16.37 115.20 16.32Q115.14 16.27 115.07 16.20Q115.00 16.13 115.00 15.99L115.00 15.99Q114.90 15.96 114.81 15.93Q114.73 15.89 114.66 15.89L114.66 15.89Q113.77 15.45 112.78 15.14Q111.79 14.83 111.10 14.46L111.10 14.46Q110.69 14.73 110.28 14.59Q109.87 14.46 109.29 14.32L109.29 14.32Q107.86 14.25 106.57 14.05Q105.29 13.84 104.10 13.33L104.10 13.33Q104.03 13.12 103.92 12.97Q103.82 12.82 103.45 12.88L103.45 12.88Q103.21 12.54 102.95 12.25Q102.69 11.96 102.49 11.58ZM133.32 17.53L133.15 18.04Q132.91 18.25 132.74 18.54Q132.57 18.83 132.40 19.14L132.40 19.14Q132.23 19.51 132.02 19.86Q131.82 20.20 131.51 20.47L131.51 20.47Q131.34 20.98 131.17 21.27Q131.00 21.57 130.62 21.94L130.62 21.94Q130.28 23.31 129.01 24.92L129.01 24.92Q128.98 25.22 128.82 25.51Q128.67 25.80 128.50 26.08L128.50 26.08Q128.43 26.18 128.36 26.30Q128.29 26.42 128.26 26.49L128.26 26.49L128.19 26.83Q128.02 27.10 127.82 27.31Q127.61 27.51 127.44 27.68L127.44 27.68Q127.37 27.79 127.20 27.96L127.20 27.96L126.69 28.16Q124.19 27.82 123.65 25.50L123.65 25.50L123.68 25.15Q123.75 24.98 123.80 24.80Q123.85 24.61 123.92 24.40L123.92 24.40Q124.06 23.92 124.24 23.45Q124.43 22.97 124.81 22.59L124.81 22.59Q124.88 22.35 125.12 21.82Q125.36 21.29 125.94 20.23L125.94 20.23Q126.42 19.41 126.69 18.93Q126.96 18.46 127.13 18.18L127.13 18.18Q126.79 17.63 126.31 17.19L126.31 17.19Q125.87 16.34 125.54 15.55Q125.22 14.76 125.05 14.15L125.05 14.15Q125.01 13.70 124.95 13.40Q124.88 13.09 124.81 12.75L124.81 12.75Q124.71 12.37 124.64 12.00Q124.57 11.62 124.57 11.21L124.57 11.21Q124.40 10.97 124.36 10.73L124.36 10.73L124.43 10.39Q124.54 10.15 124.47 9.76Q124.40 9.36 124.30 8.95L124.30 8.95Q124.23 8.61 124.14 8.20Q124.06 7.79 124.09 7.38Q124.13 6.97 124.31 6.61Q124.50 6.25 124.95 5.98L124.95 5.98L125.53 5.95Q125.83 6.12 126.12 6.27Q126.42 6.42 126.69 6.59L126.69 6.59Q127.06 6.77 127.41 6.94Q127.75 7.11 128.12 7.38L128.12 7.38L128.36 7.86L128.81 8.24L128.81 8.61Q128.84 8.75 128.84 8.99L128.84 8.99Q128.84 9.43 128.98 9.53L128.98 9.53L129.12 9.94Q129.12 10.42 129.22 10.85Q129.32 11.28 129.42 11.65L129.42 11.65Q129.53 12.03 129.63 12.44Q129.73 12.85 129.66 13.33L129.66 13.33Q129.87 13.23 130.00 13.09L130.00 13.09Q130.07 13.02 130.14 12.99Q130.21 12.95 130.28 12.88L130.28 12.88L132.29 10.15L132.23 9.81L132.94 9.12Q133.22 8.85 133.47 8.61Q133.73 8.37 133.90 8.10L133.90 8.10L134.28 7.83Q135.37 6.12 137.39 5.71L137.39 5.71L137.87 5.64L138.00 6.08Q138.14 6.46 138.57 6.77Q138.99 7.07 139.47 7.35L139.47 7.35L139.78 7.55Q139.95 7.89 139.95 8.06Q139.95 8.24 139.92 8.37L139.92 8.37L140.05 8.71Q139.78 9.53 139.39 9.91Q138.99 10.29 138.62 10.59L138.62 10.59Q138.31 10.87 138.05 11.09Q137.80 11.31 137.66 11.65L137.66 11.65L137.42 11.93Q136.70 12.34 136.50 13.02L136.50 13.02L136.40 13.43L135.99 13.43Q135.95 13.43 135.83 13.55Q135.71 13.67 135.47 14.15L135.47 14.15Q135.23 14.49 135.13 14.59Q135.03 14.70 134.96 14.76L134.96 14.76Q134.93 14.90 134.87 15.02Q134.82 15.14 134.75 15.31L134.75 15.31Q134.31 15.75 134.21 15.98Q134.11 16.20 133.97 16.47L133.97 16.47Q133.83 16.75 133.71 17.00Q133.59 17.26 133.32 17.53L133.32 17.53ZM143.23 20.78L143.23 20.78Q142.92 20.85 142.79 21.14Q142.65 21.43 142.53 21.74Q142.41 22.04 142.29 22.30Q142.17 22.56 141.93 22.56L141.93 22.56Q141.90 22.83 141.74 23.04Q141.59 23.24 141.45 23.46Q141.32 23.68 141.25 23.94Q141.18 24.20 141.32 24.54L141.32 24.54Q141.04 24.74 140.98 25.12Q140.91 25.50 140.82 25.84Q140.74 26.18 140.53 26.42Q140.33 26.66 139.78 26.62L139.78 26.62Q139.68 26.76 139.75 26.79Q139.81 26.83 139.85 27.03L139.85 27.03Q139.47 26.97 139.28 27.09Q139.10 27.21 138.82 27.24L138.82 27.24Q138.17 27.03 137.75 26.52Q137.32 26.01 136.99 25.38Q136.67 24.74 136.41 24.09Q136.16 23.45 135.92 22.97L135.92 22.97Q136.02 22.59 135.95 22.23Q135.88 21.87 135.71 21.63L135.71 21.63Q137.39 18.08 139.37 14.05Q141.35 10.01 143.13 6.08L143.13 6.08Q143.92 6.39 144.68 6.78Q145.45 7.18 146.09 7.69Q146.72 8.20 147.16 8.87Q147.61 9.53 147.74 10.35L147.74 10.35Q147.67 10.56 147.59 10.51Q147.50 10.46 147.44 10.56L147.44 10.56Q147.57 10.73 147.59 10.80Q147.61 10.87 147.59 10.94Q147.57 11.00 147.57 11.12Q147.57 11.24 147.67 11.45L147.67 11.45Q147.54 11.41 147.49 11.48Q147.44 11.55 147.26 11.48L147.26 11.48Q147.40 11.86 147.35 12.10Q147.30 12.34 147.20 12.52Q147.09 12.71 147.03 12.94Q146.96 13.16 147.06 13.50L147.06 13.50Q146.96 13.50 146.91 13.55Q146.85 13.60 146.82 13.65Q146.79 13.70 146.73 13.76Q146.68 13.81 146.58 13.77L146.58 13.77Q146.68 14.52 146.65 15.28Q146.62 16.03 146.60 16.80Q146.58 17.57 146.62 18.40Q146.65 19.24 146.85 20.13L146.85 20.13Q148.08 19.41 148.82 18.28Q149.55 17.16 150.02 15.75Q150.48 14.35 150.72 12.75Q150.96 11.14 151.23 9.47L151.23 9.47Q151.54 9.16 151.71 8.71Q151.88 8.27 152.02 7.77Q152.15 7.28 152.29 6.78Q152.43 6.29 152.63 5.88L152.63 5.88Q153.14 5.95 153.50 6.20Q153.86 6.46 154.17 6.75Q154.48 7.04 154.82 7.30Q155.16 7.55 155.67 7.62L155.67 7.62Q156.08 8.20 156.42 8.75Q156.77 9.29 156.87 9.91L156.87 9.91Q156.70 10.18 156.61 10.53Q156.53 10.87 156.42 11.21Q156.32 11.55 156.15 11.84Q155.98 12.13 155.67 12.34L155.67 12.34Q155.57 13.23 155.42 13.96Q155.26 14.70 155.11 15.41Q154.96 16.13 154.85 16.90Q154.75 17.67 154.78 18.59L154.78 18.59Q154.51 19.38 154.20 20.27Q153.90 21.16 153.72 21.87L153.72 21.87Q153.18 22.32 152.87 22.93Q152.56 23.55 152.22 24.16L152.22 24.16Q152.08 24.30 152.05 24.23Q152.02 24.16 151.81 24.13L151.81 24.13Q151.84 24.27 151.81 24.33Q151.78 24.40 151.73 24.45Q151.67 24.50 151.66 24.61Q151.64 24.71 151.71 24.88L151.71 24.88Q151.23 25.09 150.85 25.46Q150.48 25.84 150.05 26.15Q149.62 26.45 149.02 26.56Q148.43 26.66 147.47 26.32L147.47 26.32Q146.07 25.29 144.99 23.96Q143.92 22.63 143.23 20.78ZM170.20 27.07L170.20 27.07Q169.65 27.10 168.85 27.03Q168.05 26.97 167.36 27.27L167.36 27.27Q165.55 27.21 163.67 26.83Q161.79 26.45 160.22 25.91L160.22 25.91Q159.88 25.53 159.54 25.21Q159.19 24.88 158.61 24.74L158.61 24.74Q157.79 24.09 157.28 23.15Q156.77 22.21 156.46 21.16Q156.15 20.10 156.05 18.98Q155.95 17.87 155.98 16.85L155.98 16.85Q156.49 15.31 157.43 14.20Q158.37 13.09 159.36 12.00L159.36 12.00Q159.81 11.79 160.03 11.57Q160.25 11.35 160.51 11.16Q160.77 10.97 161.02 10.78Q161.28 10.59 161.48 10.32L161.48 10.32Q162.20 10.15 162.73 9.82Q163.26 9.50 163.77 9.14Q164.29 8.78 164.83 8.47Q165.38 8.17 166.10 8.00L166.10 8.00Q166.37 7.69 166.75 7.50Q167.12 7.31 167.52 7.12Q167.91 6.94 168.27 6.73Q168.63 6.53 168.83 6.18L168.83 6.18Q169.00 6.46 169.31 6.37Q169.62 6.29 169.89 6.18L169.89 6.18Q170.06 6.15 170.18 6.25Q170.30 6.36 170.40 6.46Q170.51 6.56 170.59 6.58Q170.68 6.59 170.75 6.42L170.75 6.42Q170.92 6.42 170.85 6.59Q170.78 6.77 170.75 6.83L170.75 6.83Q171.02 6.80 171.21 6.95Q171.40 7.11 171.81 7.14L171.81 7.14Q171.94 7.31 171.87 7.40Q171.81 7.48 171.81 7.69L171.81 7.69Q172.83 8.00 173.10 8.66Q173.38 9.33 173.14 10.05Q172.90 10.76 172.28 11.38Q171.67 12.00 170.95 12.20L170.95 12.20Q169.31 12.64 167.86 13.17Q166.41 13.70 165.48 14.73L165.48 14.73Q164.66 14.97 164.03 15.36Q163.40 15.75 162.83 16.25Q162.27 16.75 161.77 17.28Q161.28 17.81 160.73 18.32L160.73 18.32Q160.77 18.80 160.58 19.05Q160.39 19.31 160.22 19.58L160.22 19.58Q160.29 20.10 160.46 20.49Q160.63 20.88 160.83 21.26L160.83 21.26Q163.09 21.94 165.64 22.11Q168.18 22.28 170.75 22.32L170.75 22.32Q170.99 22.66 171.31 22.95Q171.63 23.24 171.91 23.56Q172.18 23.89 172.35 24.28Q172.52 24.68 172.42 25.26L172.42 25.26Q171.94 25.77 171.36 26.20Q170.78 26.62 170.20 27.07Z"></path></g>
        
      </svg>